<svg width="573" height="573" xmlns="http://www.w3.org/2000/svg">
 <!-- Created with Method Draw - http://github.com/duopixel/Method-Draw/ -->

 <g>
  <title>background</title>
  <rect fill="none" id="canvas_background" height="575" width="575" y="-1" x="-1"/>
  <g display="none" overflow="visible" y="0" x="0" height="100%" width="100%" id="canvasGrid">
   <rect fill="url(#gridpattern)" stroke-width="0" y="0" x="0" height="100%" width="100%"/>
  </g>
 </g>
 <g>
  <title>Layer 1</title>
  <g stroke="null" id="svg_7">
   <g stroke="null" transform="matrix(21.97197435385629,0,0,21.97197435385629,50.40149636071699,82.54561754155424) " id="svg_4">
    <path stroke="null" id="svg_5" fill="#95a5a6" d="m8.245339,1.28248c-3.5899,0 -6.5,2.9 -6.5,6.5c0,0 -0.0005,0 0,0.1c-1.7839,0.9 -3,2.7 -3,4.9c0,3 2.4624,5.5 5.5,5.5l0.0312,0l13.219,0l0.25,0c2.761,0 5,-2.3 5,-5c0,-2.1 -1.297,-3.9 -3.125,-4.7c0.071,-0.2 0.125,-0.5 0.125,-0.8c0,-2 -1.567,-3.5 -3.5,-3.5c-0.798,0 -1.536,0.2 -2.125,0.7c-1.043,-2.2 -3.282,-3.7 -5.875,-3.7l-0.0002,0z"/>
    <path stroke="null" id="svg_6" fill="#bdc3c7" d="m8.245339,0.28248c-3.5899,0 -6.5,2.9 -6.5,6.5c0,0 -0.0005,0 0,0.1c-1.7839,0.9 -3,2.7 -3,4.9c0,3 2.4624,5.5 5.5,5.5l0.0312,0l13.219,0l0.25,0c2.761,0 5,-2.3 5,-5c0,-2.1 -1.297,-3.9 -3.125,-4.7c0.071,-0.2 0.125,-0.5 0.125,-0.8c0,-2 -1.567,-3.5 -3.5,-3.5c-0.798,0 -1.536,0.2 -2.125,0.7c-1.043,-2.2 -3.282,-3.7 -5.875,-3.7l-0.0002,0z"/>
   </g>
  </g>
  <text font-weight="bold" xml:space="preserve" text-anchor="start" font-family="'Trebuchet MS', Gadget, sans-serif" font-size="220" id="svg_9" y="408.317595" x="105.591746" stroke-width="0" stroke="#000" fill="#ffffff">ROI</text>
 </g>
</svg>