<?xml version="1.0"?><svg width="58.282" height="58.282" xmlns="http://www.w3.org/2000/svg">
 <defs>
 </defs>
 <g>
  <title>Layer 1</title>
  <g id="Layer_x0020_1">
   <metadata fill="#ffffff" id="CorelCorpID_0Corel-Layer"/>
   <g id="_152222920">
    <path fill="#ffffff" d="m24.185699,22.4995c-5.4466,3.144499 2.863701,18.723999 8.8237,15.283001c1.058399,1.833199 4.467499,7.738098 5.525902,9.571198c-2.514603,1.4519 -4.643101,2.367203 -7.5585,0.7006c-8.094601,-4.6273 -17.004601,-20.054298 -16.751101,-29.255798c0.087999,-3.196 1.970999,-4.4483 4.434,-5.8703c1.058399,1.8332 4.4676,7.7381 5.5259,9.571301l0.000099,0z" class="fil0" id="_152222248"/>
    <path fill="#ffffff" d="m26.4704,22.239901c-0.58849,0.339779 -1.3458,0.136969 -1.68564,-0.45158l-5.209499,-9.023161c-0.33984,-0.588619 -0.13703,-1.34586 0.451519,-1.685699l2.737991,-1.58075c0.588549,-0.33984 1.34598,-0.136849 1.685759,0.4517l5.209501,9.023101c0.339779,0.588499 0.136909,1.345798 -0.45158,1.685579l-2.73805,1.580811z" class="fil0" id="_150519168"/>
    <path fill="#ffffff" d="m40.702301,46.8904c-0.58849,0.339779 -1.345802,0.136971 -1.685642,-0.451641l-5.209499,-9.023159c-0.33984,-0.588558 -0.137028,-1.34586 0.451519,-1.685638l2.737991,-1.580811c0.588551,-0.339783 1.345982,-0.136791 1.68576,0.451698l5.209499,9.023102c0.339779,0.588558 0.136909,1.34586 -0.45158,1.685638l-2.738049,1.580811z" class="fil0" id="_226148072"/>
   </g>
   <path fill="#ffffff" id="svg_1" d="m29.1409,0l0.000431,0l0,0.00679c8.049969,0.00012 15.334999,3.26003 20.6045,8.52962c5.269279,5.26934 8.529068,12.553899 8.529308,20.603601l0.00679,0l0,0.000919l0,0.000429l-0.00679,0c-0.000118,8.050032 -3.260029,15.335001 -8.529617,20.604502c-5.269413,5.269279 -12.554001,8.529068 -20.603701,8.529308l0,0.00679l-0.000921,0l-0.000441,0l0,-0.00679c-8.049969,-0.000118 -15.334899,-3.260029 -20.604399,-8.529621c-5.26928,-5.269409 -8.52907,-12.553997 -8.52931,-20.603699l-0.00678,0l0,-0.000919l0,-0.000431l0.00678,0c0.00013,-8.049969 3.26003,-15.334899 8.52962,-20.604399c5.26934,-5.26928 12.553899,-8.52907 20.603601,-8.52931l0,-0.00679l0.000929,0zm0.000431,3.47579l0,0.00679l-0.000431,0l-0.000929,0l0,-0.00679c-7.079182,0.00018 -13.493901,2.87527 -18.141301,7.52262c-4.64766,4.6476 -7.52287,11.0626 -7.52293,18.1421l0.00679,0l0,0.000429l0,0.000931l-0.00679,0c0.00019,7.079229 2.87527,13.493898 7.52262,18.14139c4.6476,4.647659 11.062601,7.522869 18.142099,7.52293l0,-0.006779l0.000431,0l0.000931,0l0,0.006779c7.079241,-0.000179 13.493898,-2.875271 18.141397,-7.522621c4.647663,-4.647598 7.522873,-11.062599 7.52293,-18.142199l-0.00679,0l0,-0.000431l0,-0.000919l0.00679,0c-0.000187,-7.07918 -2.875267,-13.4939 -7.522617,-18.1413c-4.647602,-4.64766 -11.062603,-7.52287 -18.1422,-7.52293z" class="fil1"/>
  </g>
 </g>
</svg>